<svg xmlns="http://www.w3.org/2000/svg" width="1408" height="768" viewBox="0 0 1408 768" role="img" aria-label="SEO architecture map">
  <defs><linearGradient id="websitesseo-grad" x1="0" x2="1"><stop offset="0" stop-color="#0d0d0d" stop-opacity=".15"/><stop offset="1" stop-color="#64748b" stop-opacity=".12"/></linearGradient><filter id="s"><feDropShadow dx="0" dy="18" stdDeviation="18" flood-color="#000" flood-opacity=".10"/></filter></defs>
  <rect width="1408" height="768" fill="#ffffff"/>
  <path d="M0 620 C240 520 438 704 704 596 C962 492 1150 560 1408 450 L1408 768 L0 768Z" fill="url(#websitesseo-grad)" opacity=".32"/>
  <g opacity=".45" stroke="#ededed" stroke-width="1"><path d="M80 0 V768"/><path d="M160 0 V768"/><path d="M240 0 V768"/><path d="M320 0 V768"/><path d="M400 0 V768"/><path d="M480 0 V768"/><path d="M560 0 V768"/><path d="M640 0 V768"/><path d="M720 0 V768"/><path d="M800 0 V768"/><path d="M880 0 V768"/><path d="M960 0 V768"/><path d="M1040 0 V768"/><path d="M1120 0 V768"/><path d="M1200 0 V768"/><path d="M1280 0 V768"/><path d="M1360 0 V768"/><path d="M0 80 H1408"/><path d="M0 152 H1408"/><path d="M0 224 H1408"/><path d="M0 296 H1408"/><path d="M0 368 H1408"/><path d="M0 440 H1408"/><path d="M0 512 H1408"/><path d="M0 584 H1408"/><path d="M0 656 H1408"/><path d="M0 728 H1408"/></g>
  <g filter="url(#s)">
    <rect x="124" y="204" width="520" height="286" rx="8" fill="#f9f9f9" stroke="#ededed"/>
      <rect x="154" y="234" width="160" height="10" rx="5" fill="#282828" opacity=".75"/>
      <rect x="154" y="264" width="412" height="42" rx="8" fill="#ffffff" stroke="#ededed"/>
      <rect x="178" y="281" width="188" height="8" rx="4" fill="#5d5d5d" opacity=".55"/>
      <rect x="154" y="322" width="412" height="42" rx="8" fill="#ffffff" stroke="#ededed"/>
      <rect x="178" y="339" width="238" height="8" rx="4" fill="#5d5d5d" opacity=".48"/>
      <rect x="154" y="380" width="190" height="76" rx="8" fill="url(#websitesseo-grad)" opacity=".95"/>
      <rect x="366" y="380" width="200" height="76" rx="8" fill="#ffffff" stroke="#ededed"/>
      <path d="M388 430 C420 398, 448 446, 486 410 S532 390, 546 414" fill="none" stroke="#0d0d0d" stroke-width="4" stroke-linecap="round" opacity=".9"/>
    <rect x="724" y="174" width="520" height="452" rx="8" fill="#f9f9f9" stroke="#ededed"/>
    <rect x="724" y="174" width="520" height="48" rx="8" fill="#ffffff" stroke="#ededed"/>
    <circle cx="754" cy="198" r="5" fill="#ededed"/><circle cx="774" cy="198" r="5" fill="#ededed"/><circle cx="794" cy="198" r="5" fill="#ededed"/>
    <text x="1198" y="203" text-anchor="end" font-family="Arial, sans-serif" font-size="12" font-weight="700" fill="#5d5d5d">OPENAI</text>
    <g>
      <rect x="760" y="238" width="438" height="54" rx="8" fill="#fff" stroke="#ededed"/>
      <circle cx="790" cy="265" r="17" fill="#ffffff" stroke="#ededed"/>
      <text x="790" y="269" text-anchor="middle" font-family="monospace" font-size="11" fill="#282828">01</text>
      <rect x="826" y="255" width="120" height="8" rx="4" fill="#282828" opacity="0.72"/>
      <text x="826" y="277" font-family="Arial, sans-serif" font-size="13" font-weight="700" fill="#282828">Hub page</text>
      <circle cx="1165" cy="265" r="5" fill="#0d0d0d"/>
    </g><g>
      <rect x="760" y="312" width="438" height="54" rx="8" fill="#fff" stroke="#ededed"/>
      <circle cx="790" cy="339" r="17" fill="#ffffff" stroke="#ededed"/>
      <text x="790" y="343" text-anchor="middle" font-family="monospace" font-size="11" fill="#282828">02</text>
      <rect x="826" y="329" width="142" height="8" rx="4" fill="#5d5d5d" opacity="0.45"/>
      <text x="826" y="351" font-family="Arial, sans-serif" font-size="13" font-weight="700" fill="#282828">Service page</text>
      <circle cx="1165" cy="339" r="5" fill="#64748b"/>
    </g><g>
      <rect x="760" y="386" width="438" height="54" rx="8" fill="#fff" stroke="#ededed"/>
      <circle cx="790" cy="413" r="17" fill="#ffffff" stroke="#ededed"/>
      <text x="790" y="417" text-anchor="middle" font-family="monospace" font-size="11" fill="#282828">03</text>
      <rect x="826" y="403" width="164" height="8" rx="4" fill="#282828" opacity="0.72"/>
      <text x="826" y="425" font-family="Arial, sans-serif" font-size="13" font-weight="700" fill="#282828">Internal links</text>
      <circle cx="1165" cy="413" r="5" fill="#0d0d0d"/>
    </g><g>
      <rect x="760" y="460" width="438" height="54" rx="8" fill="#fff" stroke="#ededed"/>
      <circle cx="790" cy="487" r="17" fill="#ffffff" stroke="#ededed"/>
      <text x="790" y="491" text-anchor="middle" font-family="monospace" font-size="11" fill="#282828">04</text>
      <rect x="826" y="477" width="186" height="8" rx="4" fill="#5d5d5d" opacity="0.45"/>
      <text x="826" y="499" font-family="Arial, sans-serif" font-size="13" font-weight="700" fill="#282828">Schema</text>
      <circle cx="1165" cy="487" r="5" fill="#64748b"/>
    </g><g>
      <rect x="760" y="534" width="438" height="54" rx="8" fill="#fff" stroke="#ededed"/>
      <circle cx="790" cy="561" r="17" fill="#ffffff" stroke="#ededed"/>
      <text x="790" y="565" text-anchor="middle" font-family="monospace" font-size="11" fill="#282828">05</text>
      <rect x="826" y="551" width="208" height="8" rx="4" fill="#282828" opacity="0.72"/>
      <text x="826" y="573" font-family="Arial, sans-serif" font-size="13" font-weight="700" fill="#282828">Quick answers</text>
      <circle cx="1165" cy="561" r="5" fill="#0d0d0d"/>
    </g>
  </g>
  <text x="124" y="142" font-family="Arial, sans-serif" font-size="13" letter-spacing="3" font-weight="700" fill="#5d5d5d">OPERATING VIEW</text>
  <text x="124" y="180" font-family="Arial, sans-serif" font-size="42" font-weight="700" fill="#282828">SEO architecture map</text>
  <g>
      <rect x="132" y="510" width="150" height="96" rx="8" fill="#f9f9f9" stroke="#ededed"/>
      <circle cx="156" cy="534" r="7" fill="#0d0d0d"/>
      <text x="152" y="568" font-family="Arial, sans-serif" font-size="13" font-weight="700" fill="#282828">Hub page</text>
      <rect x="152" y="584" width="90" height="6" rx="3" fill="#5d5d5d" opacity="0.35"/>
    </g><g>
      <rect x="306" y="510" width="150" height="96" rx="8" fill="#f9f9f9" stroke="#ededed"/>
      <circle cx="330" cy="534" r="7" fill="#64748b"/>
      <text x="326" y="568" font-family="Arial, sans-serif" font-size="13" font-weight="700" fill="#282828">Service page</text>
      <rect x="326" y="584" width="90" height="6" rx="3" fill="#5d5d5d" opacity="0.35"/>
    </g><g>
      <rect x="480" y="510" width="150" height="96" rx="8" fill="#f9f9f9" stroke="#ededed"/>
      <circle cx="504" cy="534" r="7" fill="#5d5d5d"/>
      <text x="500" y="568" font-family="Arial, sans-serif" font-size="13" font-weight="700" fill="#282828">Internal links</text>
      <rect x="500" y="584" width="90" height="6" rx="3" fill="#5d5d5d" opacity="0.35"/>
    </g>
</svg>